<?xml version="1.0" standalone="no"?>
<!DOCTYPE svg PUBLIC "-//W3C//DTD SVG 20010904//EN"
 "http://www.w3.org/TR/2001/REC-SVG-20010904/DTD/svg10.dtd">
<svg version="1.0" xmlns="http://www.w3.org/2000/svg"
 width="674.000000pt" height="255.000000pt" viewBox="0 0 674.000000 255.000000"
 preserveAspectRatio="xMidYMid meet">

<g transform="translate(0.000000,255.000000) scale(0.100000,-0.100000)"
fill="#000000" stroke="none">
<path d="M2097 1835 c-38 -13 -103 -46 -145 -73 -72 -46 -89 -52 -244 -86
-289 -63 -435 -113 -581 -200 -123 -73 -203 -186 -133 -186 14 0 28 5 32 11 4
8 0 9 -15 4 -30 -9 -27 16 5 55 73 86 313 201 542 259 137 35 252 59 252 52 0
-3 -41 -35 -90 -70 -111 -80 -200 -170 -200 -204 0 -14 9 -31 21 -38 20 -13
16 -17 -73 -76 -362 -238 -625 -512 -556 -581 36 -36 202 13 408 119 131 68
365 217 356 226 -2 3 -67 -34 -143 -82 -225 -141 -438 -238 -555 -252 -46 -6
-48 -5 -48 19 0 83 238 314 525 510 131 90 172 111 245 128 73 17 175 63 183
83 14 38 -44 25 -186 -40 -99 -45 -139 -51 -145 -21 -6 31 106 136 269 251 60
43 79 50 205 78 144 31 264 78 264 101 0 44 -89 50 -193 13z m163 -6 c0 -5
-20 -19 -44 -29 -54 -25 -233 -73 -249 -67 -17 5 79 59 153 84 69 24 140 30
140 12z m-410 -378 c0 -9 -77 -44 -120 -55 -14 -3 6 10 45 29 78 39 75 38 75
26z"/>
<path d="M4594 1762 c-106 -37 -368 -236 -539 -411 -38 -39 -74 -71 -79 -71
-17 0 -160 -84 -149 -87 6 -2 40 10 74 28 l63 31 -45 -52 c-73 -85 -139 -181
-180 -262 -21 -43 -39 -80 -39 -83 0 -19 25 15 54 73 55 109 224 319 280 349
12 6 74 19 137 28 63 8 159 22 213 30 54 9 100 14 102 12 2 -2 -34 -55 -80
-119 -167 -234 -204 -305 -185 -355 11 -30 51 -30 92 -1 57 39 258 238 323
318 61 75 108 120 125 120 22 0 4 -34 -56 -111 -36 -45 -65 -86 -65 -91 0 -22
32 -2 95 62 76 76 96 88 65 38 -21 -35 -26 -58 -11 -58 5 0 43 25 85 55 42 30
76 51 76 47 0 -4 -12 -25 -25 -47 -24 -39 -33 -85 -17 -85 5 0 28 14 50 30 50
36 48 35 55 10 7 -26 40 -26 83 1 30 18 35 19 40 5 9 -23 41 -20 91 10 55 32
50 43 -6 15 -22 -12 -43 -21 -47 -21 -3 0 -3 16 0 35 8 41 -10 48 -39 15 -25
-27 -84 -64 -92 -56 -9 9 46 76 80 97 23 13 33 15 39 6 5 -8 14 -5 31 11 13
12 31 22 40 22 9 0 17 5 17 10 0 31 -110 -10 -220 -82 -47 -31 -86 -55 -88
-54 -1 2 9 23 23 47 26 47 32 79 14 79 -7 0 -32 -15 -58 -33 -72 -52 -72 -52
-61 -22 6 15 10 28 10 31 0 10 -37 3 -58 -12 -22 -15 -22 -15 -16 25 11 67
-32 66 -103 -2 -18 -17 -33 -26 -33 -20 0 7 5 15 10 18 11 7 4 25 -9 25 -4 0
-15 -15 -24 -34 -19 -41 -109 -147 -232 -275 -107 -111 -142 -138 -157 -123
-20 20 15 83 144 263 263 368 324 469 335 561 5 42 3 53 -12 64 -25 18 -59 17
-121 -4z m95 -11 c35 -22 -16 -154 -114 -292 l-54 -77 -63 -11 c-35 -6 -133
-20 -218 -31 -85 -11 -164 -23 -175 -26 -27 -7 135 149 248 240 167 133 265
189 357 205 3 0 11 -3 19 -8z"/>
<path d="M5823 1703 c-21 -27 -70 -88 -108 -138 -39 -49 -96 -120 -128 -157
-55 -64 -60 -68 -101 -68 -51 0 -112 -36 -173 -103 -44 -48 -62 -92 -46 -108
17 -17 53 5 162 97 57 48 102 83 99 78 -59 -122 -69 -163 -45 -183 18 -14 45
-3 106 43 35 26 35 26 53 6 14 -15 26 -18 46 -14 61 15 86 41 110 115 l17 53
128 23 c71 12 188 29 260 37 l132 15 -135 -5 c-74 -3 -189 -13 -255 -23 -66
-9 -131 -14 -145 -11 -14 4 -31 5 -37 3 -15 -5 -18 -43 -3 -43 14 0 13 -56 -2
-83 -16 -30 -39 -46 -66 -47 -20 0 -22 4 -17 23 4 12 20 39 36 60 40 50 27 47
-38 -10 -65 -56 -154 -123 -165 -123 -15 0 -8 41 16 88 13 26 101 152 195 280
94 128 171 235 171 237 0 3 -6 5 -14 5 -8 0 -32 -21 -53 -47z m-348 -404 c-20
-21 -141 -121 -162 -133 -7 -4 -13 -2 -13 4 0 21 95 113 135 131 52 24 62 24
40 -2z"/>
<path d="M3460 1678 c-79 -45 -224 -196 -300 -310 -53 -82 -68 -98 -89 -98
-32 0 -78 -28 -151 -90 -67 -57 -178 -126 -187 -116 -13 12 63 147 136 241 55
71 184 244 246 331 5 7 6 16 2 20 -12 12 -54 -34 -135 -147 -121 -168 -256
-314 -341 -371 -80 -52 -117 -66 -133 -50 -19 19 2 47 51 70 84 38 137 103 97
118 -43 17 -169 -95 -182 -161 -5 -27 -2 -41 9 -53 15 -14 21 -14 70 1 30 9
78 34 108 55 30 21 59 41 66 45 7 5 4 -10 -7 -35 -27 -59 -26 -98 0 -98 23 0
95 34 105 50 12 20 21 9 17 -20 -8 -57 36 -38 157 68 l61 54 0 -34 c0 -41 25
-68 63 -68 14 0 60 18 102 40 42 22 78 40 80 40 2 0 1 -15 -2 -33 -15 -95 113
-58 178 51 13 20 23 38 24 40 2 2 60 12 130 22 137 21 183 37 75 26 -36 -4
-93 -9 -127 -13 l-63 -6 0 31 c0 64 -57 50 -158 -41 -66 -58 -200 -130 -234
-125 -19 2 -24 10 -26 42 -3 37 0 42 170 215 180 182 288 305 288 328 0 22
-43 14 -100 -19z m24 -50 c-151 -164 -338 -357 -342 -354 -10 11 114 182 184
256 72 75 191 167 202 155 3 -2 -17 -28 -44 -57z m-16 -356 c-30 -18 -38 -52
-13 -52 21 0 19 -10 -9 -51 -30 -44 -90 -79 -107 -62 -10 10 -8 22 6 53 21 46
108 130 134 130 11 0 7 -6 -11 -18z m22 -12 c0 -5 -5 -10 -11 -10 -5 0 -7 5
-4 10 3 6 8 10 11 10 2 0 4 -4 4 -10z m-873 -38 c-32 -33 -87 -67 -87 -53 0
12 88 81 103 81 6 0 -1 -12 -16 -28z m437 -7 c-30 -39 -173 -159 -181 -151
-18 18 102 146 160 171 48 21 51 18 21 -20z"/>
<path d="M2252 1340 c-14 -23 -16 -50 -4 -50 5 0 15 11 22 25 17 32 1 54 -18
25z"/>
<path d="M2316 1251 c-20 -32 -36 -63 -36 -69 0 -6 14 -21 31 -33 l31 -21 -37
-31 c-49 -40 -95 -105 -88 -123 3 -8 14 -14 24 -14 28 0 105 74 129 125 12 25
36 53 55 65 59 36 64 55 7 26 -52 -26 -53 -26 -82 -9 -17 9 -30 21 -30 26 0 5
14 28 30 52 33 48 37 65 16 65 -8 0 -31 -26 -50 -59z m5 -188 c-14 -27 -81
-88 -81 -75 0 7 16 30 36 52 38 41 62 54 45 23z"/>
<path d="M1766 1108 c-65 -90 -80 -128 -51 -128 8 0 15 4 15 9 0 30 171 183
186 168 3 -3 -6 -23 -20 -44 -26 -38 -33 -63 -18 -63 5 0 42 25 82 55 40 30
75 53 77 51 2 -1 -6 -23 -16 -47 -27 -60 -13 -70 48 -32 l49 31 -5 -39 c-4
-30 -2 -40 11 -45 24 -9 61 3 96 32 39 33 33 42 -11 15 -19 -12 -42 -21 -52
-21 -21 0 -17 23 16 82 11 21 17 41 14 45 -4 4 -35 -12 -68 -36 -34 -23 -63
-40 -66 -38 -2 2 1 16 7 31 24 64 7 71 -63 26 l-46 -29 6 29 c5 27 3 30 -18
30 -13 0 -44 -11 -68 -25 -30 -18 -41 -21 -37 -10 3 8 9 22 12 30 3 8 2 15 -4
15 -5 0 -40 -41 -76 -92z"/>
</g>
</svg>
